<svg width="42" height="46" viewBox="0 0 42 46" fill="none" xmlns="http://www.w3.org/2000/svg">
<path fill-rule="evenodd" clip-rule="evenodd" d="M20.997 42.9446C18.7894 44.8498 15.9257 45.9999 12.7964 45.9999C5.81438 45.9999 0.154297 40.2742 0.154297 33.211C0.154297 26.1479 5.81438 20.4221 12.7964 20.4221C15.9257 20.4221 18.7894 21.5722 20.997 23.4774C23.2046 21.5723 26.0683 20.4221 29.1975 20.4221C36.1796 20.4221 41.8397 26.1479 41.8397 33.211C41.8397 40.2742 36.1796 46 29.1975 46C26.0683 46 23.2046 44.8498 20.997 42.9446Z" fill="#B9B9B9"/>
<path fill-rule="evenodd" clip-rule="evenodd" d="M20.9966 42.9446C23.7146 40.5989 25.4381 37.1086 25.4381 33.211C25.4381 29.3135 23.7146 25.8232 20.9966 23.4775C23.2042 21.5723 26.0679 20.4221 29.1972 20.4221C36.1793 20.4221 41.8393 26.1479 41.8393 33.211C41.8393 40.2742 36.1793 45.9999 29.1972 45.9999C26.0679 45.9999 23.2042 44.8498 20.9966 42.9446Z" fill="white"/>
<path fill-rule="evenodd" clip-rule="evenodd" d="M20.9965 42.9452C23.7146 40.5994 25.4382 37.109 25.4382 33.2114C25.4382 29.3138 23.7146 25.8234 20.9965 23.4777C18.2783 25.8234 16.5547 29.3138 16.5547 33.2114C16.5547 37.109 18.2783 40.5994 20.9965 42.9452Z" fill="#E3E3E3"/>
<path fill-rule="evenodd" clip-rule="evenodd" d="M10.4603 13.2491H6.83936L4.12409 2.89017C3.99522 2.41367 3.72157 1.9924 3.31905 1.79386C2.31451 1.29491 1.20757 0.897816 0 0.697544V0.298727H5.83305C6.6381 0.298727 7.24188 0.897816 7.34251 1.59359L8.75134 9.0658L12.3705 0.298727H15.8908L10.4603 13.2491ZM17.9036 13.2491H14.4839L17.2998 0.298727H20.7195L17.9036 13.2491ZM25.1433 3.88631C25.2439 3.18881 25.8477 2.78999 26.5521 2.78999C27.659 2.68986 28.8648 2.89013 29.8711 3.38736L30.4749 0.599089C29.4686 0.200272 28.3617 0 27.3571 0C24.0381 0 21.623 1.79381 21.623 4.2834C21.623 6.17735 23.3337 7.1718 24.5412 7.77089C25.8477 8.36825 26.3508 8.76707 26.2502 9.36443C26.2502 10.2605 25.2439 10.6593 24.2394 10.6593C23.0318 10.6593 21.8242 10.3606 20.719 9.86166L20.1153 12.6517C21.3228 13.1489 22.6293 13.3491 23.8368 13.3491C27.5584 13.4476 29.8711 11.6555 29.8711 8.96561C29.8711 5.57826 25.1433 5.37971 25.1433 3.88631ZM41.8397 13.2491L39.1244 0.298727H36.2079C35.6041 0.298727 35.0003 0.697545 34.799 1.29491L29.771 13.2491H33.2913L33.994 11.3568H38.3193L38.7219 13.2491H41.8397ZM36.7108 3.7862L37.7154 8.66696H34.8995L36.7108 3.7862Z" fill="#E3E3E3"/>
</svg>
