<svg width="38" height="44" viewBox="0 0 38 44" fill="none" xmlns="http://www.w3.org/2000/svg">
<path d="M32.1683 3.31782C30.1309 0.995633 26.448 5.82432e-05 21.7367 5.82432e-05H8.06287C7.59648 -0.000190019 7.14531 0.166028 6.79056 0.468796C6.4358 0.771564 6.20076 1.191 6.12771 1.65163L0.436654 37.7636C0.410265 37.9311 0.420508 38.1023 0.466676 38.2655C0.512844 38.4287 0.593841 38.5799 0.704085 38.7088C0.814329 38.8377 0.9512 38.9411 1.10527 39.012C1.25934 39.0829 1.42694 39.1195 1.59653 39.1194H10.0382L12.1583 25.6719L12.0926 26.093C12.1643 25.6333 12.3977 25.2143 12.751 24.9115C13.1042 24.6087 13.554 24.442 14.0192 24.4414H18.0307C25.9113 24.4414 32.0819 21.2405 33.8844 11.981C33.9379 11.7071 33.9842 11.4406 34.0244 11.1801C34.5599 7.75772 34.0207 5.42823 32.1695 3.31903" fill="#003087"/>
<path d="M32.1683 3.31782C30.1309 0.995633 26.448 5.82432e-05 21.7367 5.82432e-05H8.06287C7.59648 -0.000190019 7.14531 0.166028 6.79056 0.468796C6.4358 0.771564 6.20076 1.191 6.12771 1.65163L0.436654 37.7636C0.410265 37.9311 0.420508 38.1023 0.466676 38.2655C0.512844 38.4287 0.593841 38.5799 0.704085 38.7088C0.814329 38.8377 0.9512 38.9411 1.10527 39.012C1.25934 39.0829 1.42694 39.1195 1.59653 39.1194H10.0382L12.1583 25.6719L12.0926 26.093C12.1643 25.6333 12.3977 25.2143 12.751 24.9115C13.1042 24.6087 13.554 24.442 14.0192 24.4414H18.0307C25.9113 24.4414 32.0819 21.2405 33.8844 11.981C33.9379 11.7071 33.9842 11.4406 34.0244 11.1801C34.5599 7.75772 34.0207 5.42823 32.1695 3.31903" fill="#003087"/>
<path d="M14.4345 11.2257C14.4984 10.8232 14.7037 10.4566 15.0136 10.1919C15.3234 9.92711 15.7174 9.78143 16.125 9.78099H26.845C28.1144 9.78099 29.2986 9.86375 30.3806 10.0366C30.9722 10.1317 31.5574 10.2626 32.1332 10.4285C32.7871 10.6123 33.4198 10.8644 34.0209 11.1806C34.5588 7.75699 34.0185 5.42872 32.1673 3.3183C30.1287 0.997336 26.447 0.00176328 21.7357 0.00176328H8.06062C7.59465 0.00209446 7.14406 0.168572 6.78982 0.471288C6.43557 0.774004 6.20088 1.19312 6.1279 1.65334L0.434405 37.7616C0.407838 37.9291 0.417905 38.1004 0.463914 38.2637C0.509923 38.4269 0.590779 38.5782 0.70091 38.7072C0.811041 38.8362 0.94783 38.9398 1.10185 39.0108C1.25587 39.0818 1.42346 39.1186 1.59306 39.1187H10.0359L12.1561 25.6699L14.4345 11.2257Z" fill="#E3E3E3"/>
<path d="M34.021 11.1792C33.9792 11.447 33.9326 11.7139 33.881 11.98C32.0785 21.2383 25.908 24.4405 18.0274 24.4405H14.0147C13.5495 24.4408 13.0997 24.6074 12.7467 24.9103C12.3936 25.2132 12.1604 25.6323 12.0893 26.092L10.0348 39.1172L9.45063 42.8123C9.4274 42.9589 9.43626 43.1089 9.47659 43.2519C9.51693 43.3948 9.58778 43.5273 9.68427 43.6402C9.78075 43.7531 9.90058 43.8438 10.0355 43.9059C10.1704 43.968 10.3171 44.0002 10.4657 44.0001H17.5819C18.4241 44.0001 19.1398 43.3867 19.2725 42.5555L19.3418 42.1928L20.683 33.6927L20.7682 33.2229C20.832 32.8201 21.0374 32.4533 21.3476 32.1884C21.6577 31.9236 22.0522 31.7781 22.46 31.7782H23.5249C30.4185 31.7782 35.8162 28.9789 37.3935 20.8781C38.0508 17.4946 37.71 14.6673 35.9695 12.6823C35.4169 12.0668 34.7566 11.5575 34.021 11.1792" fill="white"/>
<path d="M32.1339 10.4278C31.8588 10.3462 31.5753 10.2732 31.2832 10.2087C30.9911 10.1442 30.6892 10.087 30.3801 10.0383C29.2969 9.86181 28.1139 9.77905 26.8433 9.77905H16.1245C15.7165 9.77855 15.3218 9.92405 15.0117 10.1892C14.7016 10.4544 14.4967 10.8218 14.4339 11.2249L12.1556 25.6717L12.0898 26.0916C12.161 25.6318 12.3942 25.2127 12.7472 24.9098C13.1003 24.607 13.5501 24.4403 14.0153 24.44H18.028C25.9086 24.44 32.0791 21.2391 33.8816 11.9795C33.9352 11.7057 33.9802 11.4404 34.0216 11.1787C33.5456 10.9296 33.0497 10.7204 32.5392 10.5531C32.4065 10.5093 32.2714 10.4679 32.1339 10.4265" fill="#B9B9B9"/>
</svg>
