<svg width="500" height="100" viewBox="0 0 500 100" fill="none" xmlns="http://www.w3.org/2000/svg">
<path fill-rule="evenodd" clip-rule="evenodd" d="M87.9799 0.123973C84.6377 0.728206 81.4264 2.6524 79.4753 5.21995C75.9389 9.87373 75.9332 16.0392 79.4604 20.6811C82.3789 24.5216 87.4749 26.5733 92.2134 25.8154C101.952 24.2575 106.762 13.6327 101.309 5.72183C98.9899 2.35753 95.2865 0.304047 91.0478 0.0317746C90.0093 -0.0347698 88.6287 0.00663161 87.9799 0.123973ZM0 51.3123V100H11.5H22.8661V95.8703L22.9398 92.8057L24.9061 94.3451C27.4106 96.3059 31.9474 98.512 34.8685 99.1894C37.8004 99.8693 42.2476 100.098 45.1668 99.72C59.3761 97.8783 70.409 86.9658 73.3086 71.8852C73.9735 68.4282 73.9719 61.4875 73.3057 57.9454C71.8543 50.2293 68.417 43.7946 63.0698 38.7834C57.854 33.8952 51.8566 31.0488 44.4377 29.9401C41.3001 29.4713 35.4414 29.5963 32.6312 30.1916C30.0305 30.7427 26.6002 31.9979 24.9061 33.0185L23.4642 33.8871L23.3965 18.7884L23.3289 0H11.6644H0V51.3123ZM107.85 51.3123V100H119.386H130.921V51.3123V0H119.386H107.85V51.3123ZM136.896 51.3123V100H148.432H159.967V51.3123V0H148.432H136.896V51.3123ZM166.205 51.3123V100H177.5H189.014V95.8543V92.774L189.866 93.443C195.246 97.6683 200.015 99.5458 206.186 99.8678C220.189 100.599 232.072 91.5028 236.919 77.4716C237.417 76.0292 237.984 74.1251 238.178 73.2402C238.373 72.3553 238.593 71.8026 238.666 72.0122C238.741 72.2217 239.119 73.4789 239.507 74.806C242.131 83.7758 248.145 91.9508 256.887 96.2137C259.403 97.4405 262.834 98.5768 265.992 99.229C269.791 100.013 276.192 100.012 279.998 99.2268C286.812 97.8199 292.632 94.8366 297.544 90.2331C302.44 85.6451 305.984 79.9584 307.515 74.2345C307.767 73.2917 308.05 72.5201 308.142 72.5201C308.235 72.5201 308.382 73.0263 308.47 73.645C308.734 75.5093 310.388 80.1262 311.654 82.5297C314.806 88.5136 319 93 325.269 96.6044C335.089 101.252 347.203 101.117 355.319 96.2699L357.186 95.1546V97.0445V100H369H380.519V64.7736L380.533 29.5H368.866H357.2L357.186 33.1818V35.7513L356.175 34.8662C354.026 32.9854 349.76 31.0214 345.731 30.0575C343.043 29.4144 338.138 29.3019 334.902 29.8091C324.324 31.4661 316.809 37.4721 312.061 46.6136C310.59 49.4468 309.584 52.0613 308.899 54.8356C308.628 55.9351 308.349 56.8896 308.28 56.9566C308.211 57.0234 308.024 56.581 307.866 55.9732C304.727 43.9594 295.794 34.5525 283.909 30.7448C280.285 29.5838 277.13 29.5 273 29.5C263.671 29.5 255.163 32.3317 248.431 38.567C242.995 43.6023 241.385 48.0661 238.614 57.027C238.446 57.5713 238.371 57.4494 238.093 56.1741C235.853 45.8968 229.582 36.8829 220.097 32.6372C210.573 28.3746 198.185 28.6324 190.634 33.2503C190.037 33.6156 189.487 33.9143 189.412 33.9143C189.337 33.9143 189.276 27.1138 189.276 18.8021V0H177.74H166.205V51.3123ZM476.929 18.8021C476.929 27.1138 476.859 33.9143 476.773 33.9143C476.687 33.9143 476.283 33.6844 475.876 33.4032C475.469 33.1223 474.27 32.4942 473.212 32.0073C467.18 29.2323 458.253 28.8335 450.582 30.997C442.124 33.3829 434.751 39.312 430.578 47.0842C425.017 57.4415 424.753 70.6068 429.89 81.3769C432.283 86.3959 437.206 91.9798 441.887 94.9842C447.345 98.4874 453.812 100.216 460.15 99.866C465.645 99.5628 470.364 97.8623 474.832 94.5763L477.191 92.8408V95.8879V100H488.5H500V51.3123V0H488.465H476.929V18.8021ZM420.879 30.119C418.493 30.4608 415.34 31.5555 413.653 32.6276C412.124 33.5993 409.954 35.6327 409.028 36.9621C408.601 37.5732 408.584 37.466 408.571 34.1048V29.5H397.036H385.5L385.486 64.7736V100H397H408.562V81.4731C408.567 62.541 408.602 62.0064 410.006 59.2796C410.392 58.5296 411.256 57.3635 411.927 56.6887C414.074 54.5257 416.551 53.6213 421.107 53.335L424.025 53.1519V41.5011V29.8505L423.173 29.8815C422.705 29.8985 421.672 30.0054 420.879 30.119ZM78.5418 64.7736V100H90.2083H101.875V64.7736V29.5H90.2083H78.5418V64.7736ZM276.213 51.3095C280.731 52.4497 284.171 55.4919 285.705 59.7053C286.553 62.0331 286.61 65.5848 285.839 68.0035C284.17 73.2402 281.5 76 276.519 77.7025C274.612 78.1838 271.208 78.2011 269.415 77.7388C258.5 76 256.002 61.8822 263.28 54.8305C266.727 51.4911 271.636 50.1546 276.213 51.3095ZM345.924 51.9551C350.185 53.1542 353.825 56.7905 354.949 60.9727C357.198 69.3369 350.746 78.5739 341.928 78.596C338.394 78.6049 335.265 77.3703 332.563 74.9005C324.344 67.3894 328.743 53.0714 339.984 51.434C341.742 51.1779 343.805 51.359 345.924 51.9551ZM465.394 51.9635C471.728 52.9543 476.667 58.622 476.667 64.9006C476.667 71.2499 471.81 76.8054 465.334 77.8635C459.657 78.7913 453.922 76.0929 451.251 71.2375C450.08 69.1088 449.67 67.4673 449.667 64.8833C449.662 61.3511 450.919 58.2258 453.282 55.8973C455.48 53.7308 457.363 52.7019 460.281 52.0727C462.25 51.6483 463.243 51.6273 465.394 51.9635ZM40.1924 52.3262C50.3515 54.8897 53.8952 66.8577 46.6572 74.1601C43.9338 76.9077 40.9003 78.1114 36.7215 78.1025C34.7616 78.0982 33.8275 77.9653 32.4498 77.4942C22.7414 74.1746 20.246 62.0813 27.8767 55.3311C31.1452 52.44 35.9741 51.2618 40.1924 52.3262ZM206.292 52.3384C210.971 53.4067 214.929 57.1527 216.177 61.6922C216.714 63.6461 216.641 67.0744 216.021 69.0194C214.746 73.0177 211.281 76.3693 207.141 77.609C204.857 78.293 201.206 78.2879 198.899 77.5976C192.409 75.6556 188.407 68.9107 189.828 62.3096C190.832 57.6454 195.051 53.4364 199.854 52.3079C201.718 51.8698 204.294 51.882 206.292 52.3384Z" fill="white"/>
</svg>
