<svg width="345" height="230" viewBox="0 0 345 230" fill="none" xmlns="http://www.w3.org/2000/svg">
<path fill-rule="evenodd" clip-rule="evenodd" d="M35.4348 0.267587C34.8463 0.349145 33.1383 0.717589 31.639 1.08675C17.0541 4.67493 5.94154 15.8079 2.0438 30.7362C1.11296 34.3012 0.765954 42.1246 1.35869 46.1889C3.51495 60.9806 14.1707 73.783 28.2798 78.5334C34.5874 80.6571 33.286 80.5856 69.8507 80.8188L103.553 81.0334L105.308 81.8451C113.977 85.855 116.026 96.8489 109.369 103.633C108.295 104.727 106.66 105.899 105.374 106.495L103.197 107.504L57.1899 107.683C6.75504 107.879 10.4556 107.702 6.81959 110.094C4.66833 111.51 3.12407 113.332 1.99209 115.792C1.33729 117.215 1.19713 118.152 1.19713 121.104C1.19713 124.426 1.28237 124.863 2.35622 127.051C3.73036 129.85 5.96865 132.048 8.80252 133.381L10.8265 134.332H58.6165H106.407L109.893 133.367C116.919 131.421 123.337 127.705 128.344 122.684C133.387 117.625 137.061 111.22 138.944 104.205C139.794 101.038 139.883 100.098 139.883 94.2687C139.883 88.4706 139.791 87.489 138.963 84.4052C137.683 79.6423 136.179 76.189 133.732 72.3933C127.867 63.2971 119.002 57.1349 108.19 54.6388C105.102 53.9255 103.704 53.8897 71.2691 53.6937L37.5582 53.4898L35.178 52.314C24.5055 47.0428 25.7369 31.0567 37.0882 27.5133C39.0643 26.8962 40.5879 26.8404 55.4688 26.8404H71.6946L70.2412 25.1846C67.5108 22.0729 65.9391 17.7803 65.9319 13.412C65.9248 9.12877 67.1406 5.60033 69.9024 1.89016L71.3005 0.012186L53.9024 0.0658403C44.3337 0.0951725 36.0232 0.186029 35.4348 0.267587ZM82.0785 0.531219C78.434 1.67339 75.4832 4.28503 73.8219 7.83888C73.0031 9.59094 72.8822 10.3089 72.8822 13.4263C72.8822 16.6546 72.9838 17.2109 73.9232 19.1303C75.2984 21.9391 77.5471 24.1333 80.4783 25.5262L82.8681 26.6616L130.837 26.8615C183.652 27.0819 179.838 26.9127 186.512 29.3347C192.471 31.4971 197.076 34.6034 201.969 39.7613C206.776 44.8264 209.756 50.2747 211.717 57.577C212.54 60.6426 212.636 61.6581 212.636 67.2616C212.636 72.8651 212.54 73.8807 211.717 76.9463C209.752 84.2636 206.776 89.6961 201.938 94.7952C196.006 101.048 190.203 104.456 181.686 106.691C179.015 107.391 177.572 107.461 161.897 107.654L144.989 107.862L144.206 110.187C141.446 118.376 135.144 126.813 127.663 132.333L124.668 134.544L152.628 134.424C183.583 134.292 182.67 134.353 191.479 131.82C203.469 128.372 214.958 121.007 223.068 111.571C224.568 109.826 225.895 108.409 226.017 108.422C226.139 108.435 227.281 109.743 228.556 111.329C234.982 119.321 245.926 126.967 256.286 130.702C267.484 134.739 280.788 135.602 292.574 133.054C316.484 127.887 335.992 109.075 342.068 85.326C343.967 77.9031 343.93 78.7337 343.93 43.1162V9.84921L342.981 7.81921C341.653 4.97684 339.461 2.73185 336.67 1.3536C334.489 0.276533 334.053 0.191041 330.742 0.191041C327.518 0.191041 326.961 0.292984 325.05 1.23269C322.253 2.60808 320.059 4.86989 318.671 7.8099L317.539 10.2069L317.351 42.5796L317.163 74.9524L316.21 78.4497C310.335 100.01 288.767 112.213 267.476 106.024C257.185 103.034 248.219 95.3132 243.524 85.3997C240.813 79.6788 239.628 73.8066 239.608 66.0096C239.579 54.2456 235.793 41.426 229.387 31.3923C218.274 13.9883 200.787 2.91644 180.419 0.387428C175.59 -0.212094 84.023 -0.0783185 82.0785 0.531219ZM221.859 0.696483C219.466 1.58718 216.811 3.53598 215.595 5.29699C215.074 6.05104 214.647 6.76074 214.647 6.87414C214.647 6.98717 215.819 7.96408 217.25 9.04472C225.374 15.1773 232.956 24.3164 237.799 33.8158L239.624 37.3929L239.529 23.6124L239.434 9.83203L238.275 7.47187C236.895 4.66098 234.646 2.45999 231.829 1.16186C229.067 -0.11087 224.591 -0.319771 221.859 0.696483ZM288.012 6.78041C284.693 15.0045 277.346 21.4032 268.679 23.6174L266.182 24.2553V47.4577V70.6599L267.131 72.6899C271.966 83.0359 286.439 83.2344 291.421 73.0233L292.574 70.6599L292.673 41.1853C292.761 14.9695 292.708 11.4893 292.198 9.70683C291.653 7.80489 289.731 4.29969 289.238 4.30899C289.111 4.3115 288.559 5.42362 288.012 6.78041ZM178.325 44.2144C175.045 45.0994 175.007 44.8475 179.181 49.8608L182.973 54.4156L184.544 53.1478C188.265 50.1466 189.279 49.3776 191.586 47.8058L194.025 46.1446L192.456 45.4481C188.407 43.6521 182.364 43.1244 178.325 44.2144ZM172.262 46.8643C171.055 47.647 170.067 48.416 170.067 48.5731C170.067 48.8446 174.145 54.0006 176.858 57.1595L178.12 58.6297L179.974 56.9539L181.827 55.2783L178.354 50.3752C176.445 47.6781 174.786 45.4649 174.67 45.4567C174.553 45.4481 173.469 46.0816 172.262 46.8643ZM189.326 51.0234C186.678 53.292 184.467 55.3395 184.412 55.5735C184.358 55.8078 185.161 56.8315 186.196 57.8485L188.078 59.6978L193.772 55.4665C196.904 53.1392 199.521 51.0717 199.587 50.8717C199.753 50.3731 195.497 46.8689 194.746 46.8858C194.413 46.8929 191.974 48.7551 189.326 51.0234ZM167.659 50.7175C166.887 51.6519 165.973 52.8556 165.629 53.3918L165.003 54.3669L168.159 58.169C169.895 60.2605 171.535 62.2762 171.805 62.6489C172.537 63.6638 172.947 63.5057 175.007 61.4131L176.891 59.4997L173.812 55.2687C172.119 52.9418 170.499 50.5834 170.213 50.0282C169.926 49.4727 169.551 49.0184 169.378 49.0184C169.205 49.0184 168.432 49.7832 167.659 50.7175ZM196.557 54.4656C190.486 59.583 189.326 60.6336 189.326 61.0167C189.326 61.2217 190.037 62.0895 190.907 62.9455L192.487 64.5015L195.632 62.0154C197.362 60.6483 199.659 58.9073 200.738 58.1468C201.817 57.386 202.84 56.6437 203.01 56.4967C203.306 56.242 201.041 52.1101 200.382 51.7016C200.209 51.5943 198.488 52.8381 196.557 54.4656ZM163.721 56.9775C162.407 60.5499 162.116 62.5445 162.329 66.509C162.523 70.0872 163.144 73.1227 163.639 72.9045C164.017 72.7378 171.494 64.8682 171.494 64.6371C171.494 64.2347 164.983 55.0995 164.696 55.0995C164.54 55.0995 164.101 55.9444 163.721 56.9775ZM180.948 58.4083L179.277 59.9286L181.181 62.0087L183.085 64.0884L184.819 62.5431L186.554 60.9974L184.831 58.9427C183.884 57.8127 182.999 56.888 182.864 56.888C182.729 56.888 181.867 57.5723 180.948 58.4083ZM199.5 60.5242C197.401 62.3606 195.198 64.2765 194.604 64.7812L193.525 65.6992L197.469 69.3839C202.627 74.204 202.848 74.3575 203.447 73.5362C204.22 72.4756 205.018 68.1888 205.018 65.0964C205.018 62.3428 204.238 58.14 203.605 57.4836C203.446 57.3194 201.599 58.6877 199.5 60.5242ZM176.219 63.0442C175.189 64.0973 174.347 65.1093 174.347 65.2932C174.347 65.477 175.094 66.3885 176.008 67.3185L177.668 69.0098L179.574 67.3768C180.622 66.4786 181.48 65.5525 181.48 65.3189C181.48 65.0853 180.717 64.0469 179.786 63.0117L178.092 61.1294L176.219 63.0442ZM185.98 63.8437L184.239 65.4155L185.843 67.1175L187.446 68.8198L189.099 67.4609C190.008 66.7136 190.752 65.9764 190.752 65.8222C190.752 65.6684 190.07 64.8067 189.237 63.9074L187.721 62.2723L185.98 63.8437ZM168.947 70.6946C166.915 72.9764 165.133 75.0529 164.987 75.309C164.719 75.7798 166.734 79.0843 167.431 79.3175C167.807 79.4431 176.132 70.7564 176.128 70.2428C176.125 69.8275 173.287 66.5462 172.931 66.5462C172.771 66.5462 170.978 68.4131 168.947 70.6946ZM181.02 68.6152C180.096 69.5567 179.34 70.4896 179.34 70.6888C179.34 70.8881 179.975 71.6736 180.752 72.4345L182.164 73.8177L183.873 72.2574C184.812 71.3989 185.696 70.5275 185.835 70.3208C186.062 69.9856 183.422 66.9039 182.908 66.9039C182.794 66.9039 181.945 67.6741 181.02 68.6152ZM190.212 68.6975L188.815 70.1333L189.873 71.1685C192.587 73.8242 198.484 79.1612 199.036 79.462C199.531 79.7321 199.866 79.5017 200.743 78.2873L201.834 76.7767L197.101 72.0192C194.497 69.4025 192.197 67.2616 191.989 67.2616C191.781 67.2616 190.981 67.9076 190.212 68.6975ZM185.46 73.4636L183.602 75.3509L186.196 77.843C187.623 79.2141 189.876 81.2788 191.203 82.4314L193.614 84.5268L195.595 83.2083C196.684 82.4829 197.525 81.776 197.463 81.6373C197.401 81.4985 195.093 79.1784 192.334 76.4809L187.318 71.5763L185.46 73.4636ZM175.417 74.477C171.724 78.5023 169.71 80.9669 169.71 81.4602C169.71 81.7117 170.362 82.3498 171.157 82.8778L172.604 83.8382L173.403 82.9722C173.843 82.4961 175.699 80.548 177.527 78.6429L180.851 75.1792L179.293 73.5645L177.735 71.9494L175.417 74.477ZM178.567 80.7054C176.736 82.7877 175.238 84.6724 175.238 84.8939C175.238 85.5213 179.215 86.593 182.402 86.8244C185.19 87.0269 190.752 86.1948 190.752 85.5753C190.752 85.2594 182.453 76.9198 182.139 76.9198C182.005 76.9198 180.397 78.6236 178.567 80.7054ZM4.23572 165.163C2.41935 166.111 1.37545 167.874 1.37545 169.995C1.37545 172.501 2.07198 173.609 6.05246 177.436C9.46195 180.715 9.58678 180.889 9.5825 182.378C9.57679 184.4 9.08391 185.251 7.54286 185.896C4.98859 186.967 1.7321 185.317 1.7321 182.953C1.7321 182.421 1.5256 182.086 1.19713 182.086C0.773443 182.086 0.66217 182.598 0.66217 184.547C0.66217 186.984 0.673226 187.012 1.82126 187.498C2.45858 187.768 4.036 187.98 5.32633 187.969C8.40059 187.944 10.5936 186.741 11.6838 184.482C13.2819 181.171 12.3843 178.3 8.78968 175.227C4.62446 171.666 3.87195 170.752 3.87195 169.256C3.87195 168.297 4.1166 167.672 4.71255 167.111C6.60418 165.328 10.1478 166.09 10.732 168.404C10.8932 169.044 11.1581 169.567 11.3208 169.567C11.6521 169.567 12.1824 165.263 11.8875 164.967C11.7841 164.863 10.299 164.719 8.58783 164.647C6.09882 164.542 5.22862 164.646 4.23572 165.163ZM68.3082 164.827C63.7696 164.908 62.3427 165.041 62.4511 165.372C62.5299 165.614 63.0071 165.86 63.5114 165.92C64.1002 165.991 64.5036 166.311 64.6384 166.815C64.9116 167.837 64.9116 184.531 64.638 185.554C64.5228 185.985 64.0963 186.388 63.6901 186.448C63.2842 186.508 62.8937 186.736 62.8224 186.953C62.7336 187.225 64.5581 187.429 68.6396 187.606C75.465 187.901 75.3844 187.931 75.761 185.038C76.0509 182.811 75.3669 182.431 74.4871 184.33C74.0612 185.249 73.65 185.548 72.4706 185.797C71.609 185.978 70.4146 185.973 69.6175 185.784L68.2458 185.459L68.146 180.911L68.0461 176.363H70.1713C72.2291 176.363 73.7017 177.043 73.2459 177.782C73.1482 177.941 73.2937 178.258 73.5694 178.488C74.1864 179.001 74.4064 178.406 74.5438 175.852C74.634 174.173 74.1497 173.318 73.6072 174.198C73.4781 174.407 72.1946 174.575 70.7213 174.575H68.0675V170.64V166.705H70.3604C72.8069 166.705 73.7738 167.219 73.7738 168.519C73.7738 169.283 74.43 169.466 74.6479 168.762C74.7239 168.516 74.8847 167.47 75.0056 166.437C75.1718 165.012 75.1144 164.578 74.7667 164.639C74.5149 164.683 71.6086 164.767 68.3082 164.827ZM105.352 166.079C105.238 166.915 104.744 171.382 104.253 176.005C103.114 186.753 103.229 186.247 101.862 186.521C99.9235 186.911 101.249 187.417 104.382 187.484C106.179 187.523 107.503 187.389 107.745 187.147C108.041 186.85 107.848 186.686 107.009 186.518C105.954 186.306 105.872 186.184 105.872 184.833C105.872 182.891 106.606 173.458 106.807 172.814C106.895 172.534 108.638 175.713 110.681 179.879C112.9 184.402 114.598 187.452 114.899 187.452C115.205 187.452 116.768 184.536 118.879 180.03C122.484 172.333 122.983 171.437 123.001 172.625C123.007 173.008 123.243 175.657 123.525 178.509C123.808 181.362 124.044 184.517 124.05 185.521L124.06 187.346L126.913 187.567C128.483 187.688 130.007 187.695 130.302 187.582C131.259 187.213 130.867 186.75 129.397 186.514C128.586 186.384 127.814 186.015 127.63 185.67C127.45 185.332 126.805 180.489 126.197 174.908C125.59 169.326 125.028 164.694 124.948 164.615C124.401 164.065 123.357 165.88 119.759 173.642C117.515 178.481 115.588 182.442 115.477 182.443C115.366 182.443 113.329 178.42 110.949 173.501C108.167 167.749 106.433 164.559 106.091 164.559C105.735 164.559 105.49 165.062 105.352 166.079ZM141.726 165.167C141.585 165.521 140.056 169.674 138.327 174.396C133.763 186.864 134.2 185.952 132.583 186.389C131.818 186.595 131.193 186.919 131.193 187.108C131.193 187.465 131.417 187.532 132.62 187.532C136.757 187.532 138.326 187.402 138.326 187.061C138.326 186.846 138.005 186.585 137.613 186.483C136.67 186.236 136.709 185.662 137.913 182.07L138.926 179.046H142.069H145.211L146.563 182.623C147.306 184.59 147.833 186.482 147.733 186.826C147.575 187.369 147.825 187.456 149.625 187.482C150.766 187.498 152.056 187.552 152.49 187.6C152.925 187.649 153.467 187.573 153.695 187.431C154.317 187.046 153.736 186.379 152.778 186.379C151.522 186.379 150.814 184.971 146.702 174.302C143.14 165.059 142.348 163.605 141.726 165.167ZM158.11 165.006C158.018 165.252 157.903 170.114 157.853 175.81L157.763 186.168L156.898 186.373C155.963 186.594 155.438 187.44 156.218 187.47C158.926 187.576 163.006 187.5 163.163 187.342C163.552 186.952 162.879 186.379 162.034 186.379C161.562 186.379 161.029 186.097 160.85 185.753C160.67 185.409 160.407 181.866 160.266 177.88C159.974 169.692 159.921 169.81 162.526 172.907C165.645 176.614 176.555 187.81 177.049 187.81C177.476 187.81 177.557 186.274 177.557 178.196C177.557 172.909 177.659 168.067 177.785 167.437C177.935 166.686 178.303 166.181 178.855 165.971C180.641 165.289 179.666 164.916 176.1 164.916C173.383 164.916 172.54 165.026 172.651 165.364C172.731 165.61 173.234 165.863 173.769 165.925C174.388 165.999 174.853 166.336 175.05 166.856C175.378 167.721 175.722 182.088 175.415 182.087C175.316 182.086 173.886 180.597 172.238 178.778C170.589 176.958 167.333 173.429 165.001 170.936C162.67 168.443 160.437 165.988 160.039 165.48C159.266 164.494 158.38 164.276 158.11 165.006ZM228.44 164.827C223.9 164.908 222.475 165.041 222.585 165.372C222.665 165.614 223.199 165.893 223.771 165.993L224.812 166.175L224.907 176.105L225.001 186.034L224.104 186.377C223.61 186.565 223.207 186.862 223.207 187.036C223.207 187.41 234.171 187.961 235.03 187.63C235.716 187.365 236.034 186.381 236.041 184.501C236.047 182.834 235.503 182.773 234.84 184.365C234.405 185.41 234.124 185.603 232.733 185.812C231.067 186.063 229.415 185.821 228.646 185.213C228.333 184.966 228.2 183.585 228.2 180.612V176.363H230.185C232.476 176.363 233.549 176.817 233.549 177.785C233.549 178.512 234.105 179.062 234.376 178.604C234.465 178.454 234.652 177.325 234.792 176.095C235.01 174.179 234.965 173.859 234.476 173.859C234.162 173.859 233.906 174.02 233.906 174.217C233.906 174.425 232.717 174.575 231.053 174.575H228.2V170.64V166.705H230.45C232.812 166.705 233.765 167.133 233.965 168.285C234.163 169.423 234.866 169.312 235.107 168.105C235.484 166.215 235.378 164.55 234.887 164.639C234.642 164.683 231.741 164.767 228.44 164.827ZM244.799 166.079C244.685 166.915 244.192 171.382 243.704 176.005C243.216 180.629 242.732 184.784 242.628 185.239C242.514 185.745 242.03 186.211 241.383 186.437C240.801 186.64 240.326 186.952 240.326 187.129C240.326 187.501 240.204 187.488 243.714 187.488C247.238 187.488 247.102 187.503 247.102 187.101C247.102 186.908 246.701 186.649 246.21 186.526C245.464 186.338 245.318 186.088 245.314 184.999C245.307 183.21 246.069 173.445 246.265 172.799C246.353 172.512 248.091 175.691 250.129 179.864C252.345 184.403 254.037 187.452 254.338 187.452C254.803 187.452 255.494 186.107 260.557 175.344C261.422 173.505 262.184 172.057 262.251 172.125C262.452 172.333 263.507 183.661 263.507 185.62V187.452L265.201 187.525C266.133 187.564 267.457 187.62 268.144 187.647C270.484 187.74 271.151 186.932 269.058 186.538C268.385 186.412 267.596 186.042 267.305 185.718C266.931 185.3 266.45 182.148 265.659 174.943C265.043 169.343 264.475 164.695 264.396 164.615C263.848 164.065 262.805 165.879 259.206 173.642C256.962 178.481 255.033 182.442 254.919 182.443C254.805 182.443 252.766 178.42 250.389 173.501C247.617 167.765 245.877 164.559 245.536 164.559C245.182 164.559 244.937 165.064 244.799 166.079ZM316.888 164.827C312.348 164.908 310.922 165.041 311.032 165.372C311.113 165.614 311.646 165.893 312.218 165.993L313.259 166.175L313.359 175.472C313.414 180.585 313.375 185.114 313.273 185.534C313.164 185.982 312.694 186.399 312.14 186.538C310.208 187.025 311.983 187.381 317.558 187.623C324.137 187.91 324.128 187.914 324.414 184.936C324.609 182.902 323.981 182.475 323.371 184.228C323.084 185.055 322.676 185.384 321.566 185.683C320 186.106 317.336 185.813 316.92 185.173C316.776 184.951 316.656 182.878 316.652 180.566L316.647 176.363H318.719C320.88 176.363 321.854 176.812 322.056 177.902C322.321 179.337 322.904 178.553 323.168 176.406C323.481 173.864 323.351 173.509 322.342 174.141C321.961 174.38 320.524 174.575 319.148 174.575H316.647V170.64V166.705H318.81C321.27 166.705 322.353 167.14 322.353 168.127C322.353 168.758 322.949 169.446 323.241 169.153C323.311 169.083 323.481 168.021 323.62 166.792C323.823 164.993 323.776 164.574 323.38 164.639C323.11 164.683 320.188 164.767 316.888 164.827ZM16.7111 165.453C16.7111 165.783 17.0456 165.99 17.5816 165.99C18.0606 165.99 18.582 166.191 18.7407 166.437C18.8994 166.683 19.1134 170.345 19.2161 174.575C19.3852 181.523 19.4765 182.403 20.1623 183.696C21.7365 186.663 24.0557 187.917 27.9453 187.905C32.0203 187.892 34.3887 186.493 35.9152 183.198C36.7978 181.292 36.8535 180.818 37.0311 173.696C37.2173 166.228 37.2212 166.198 38.0415 166.005C39.9727 165.55 38.8304 165.09 35.5239 164.993C32.5902 164.906 32.0467 164.976 32.0467 165.44C32.0467 165.78 32.3698 165.99 32.8948 165.99C34.5203 165.99 34.6277 166.542 34.479 174.12C34.3552 180.411 34.2553 181.379 33.5742 182.882C31.3444 187.802 24.2836 187.165 22.7879 181.908C22.5254 180.985 22.4188 177.933 22.4883 173.323C22.5949 166.213 22.6006 166.168 23.3981 166.054C23.8396 165.991 24.2005 165.709 24.2005 165.428C24.2005 165.017 23.4659 164.916 20.4558 164.916C17.3648 164.916 16.7111 165.01 16.7111 165.453ZM43.8158 165.453C43.8158 165.775 44.1447 165.99 44.6361 165.99C46.2464 165.99 46.3127 166.357 46.3084 175.272C46.3038 185.277 46.1936 186.242 45.022 186.536C42.9735 187.052 44.6015 187.374 50.4886 187.619C56.727 187.878 56.8126 187.871 57.4431 187.09C57.8622 186.572 58.0815 185.698 58.0815 184.551C58.0815 182.512 57.5965 182.276 57.0184 184.033C56.7081 184.976 56.3151 185.363 55.3368 185.687C53.6631 186.241 50.5603 185.877 49.9622 185.057C49.6195 184.587 49.5332 182.235 49.6056 175.303L49.7004 166.168L50.6812 166.055C51.2426 165.99 51.662 165.723 51.662 165.429C51.662 165.015 50.9077 164.916 47.7389 164.916C44.4895 164.916 43.8158 165.009 43.8158 165.453ZM78.5952 165.263C78.4775 165.454 78.9308 165.84 79.6024 166.122C80.9373 166.681 81.8571 167.893 85.4028 173.757L87.6828 177.528V181.783C87.6828 185.993 87.6732 186.043 86.7912 186.379C85.054 187.041 85.8614 187.452 88.9018 187.452C90.5531 187.452 92.118 187.531 92.3791 187.627C92.6405 187.724 93.0949 187.643 93.3891 187.448C93.8645 187.134 93.8645 187.055 93.3891 186.742C93.0949 186.549 92.5117 186.388 92.0934 186.384C91.1134 186.378 90.9036 185.56 90.8976 181.726C90.8912 177.802 91.1176 177.089 93.8032 172.567C96.4245 168.153 98.096 166.082 99.1638 165.924C99.5857 165.862 99.9973 165.61 100.078 165.364C100.188 165.029 99.4531 164.916 97.1634 164.916C94.3852 164.916 93.4925 165.211 94.459 165.811C95.1341 166.229 94.8085 167.088 92.342 171.391L89.8683 175.706L89.0059 174.336C86.136 169.774 84.3892 166.288 84.7783 165.898C85.0026 165.673 85.1863 165.36 85.1863 165.203C85.1863 164.79 78.8506 164.849 78.5952 165.263ZM195.032 165.429C195.032 165.723 195.451 165.99 196.013 166.055C196.877 166.155 197.022 166.359 197.235 167.778C197.552 169.898 197.591 179.808 197.295 183.314C197.087 185.782 196.972 186.115 196.225 186.4C195.448 186.696 195.05 187.44 195.656 187.462C207.015 187.882 207.46 187.876 209.525 187.279C214.593 185.811 217.589 181.635 217.643 175.96C217.667 173.523 217.536 172.97 216.423 170.773C215.013 167.991 213.055 166.393 209.911 165.456C207.343 164.691 195.032 164.669 195.032 165.429ZM273.936 165.354C274.016 165.594 274.47 165.883 274.946 165.996L275.811 166.2L275.906 176.117L276.001 186.034L275.104 186.377C273.361 187.041 274.165 187.452 277.209 187.452C278.86 187.452 280.425 187.531 280.686 187.627C280.947 187.724 281.402 187.643 281.696 187.448C282.171 187.134 282.171 187.055 281.696 186.742C281.402 186.549 280.819 186.388 280.4 186.384C279.915 186.381 279.562 186.087 279.424 185.574C279.115 184.418 279.159 166.963 279.472 166.478C279.616 166.255 280.042 166.013 280.418 165.942C280.794 165.87 281.169 165.61 281.25 165.364C281.363 165.024 280.48 164.916 277.595 164.916C274.755 164.916 273.827 165.027 273.936 165.354ZM287.846 165.364C287.927 165.61 288.382 165.867 288.857 165.936C289.332 166.005 289.839 166.247 289.983 166.473C290.291 166.956 290.342 184.409 290.039 185.544C289.924 185.97 289.446 186.415 288.974 186.534C287.135 186.997 288.274 187.41 291.69 187.518C293.656 187.58 295.421 187.577 295.613 187.512C296.324 187.269 295.927 186.748 294.807 186.457C293.769 186.187 293.624 185.984 293.365 184.434C293.207 183.487 293.124 181.726 293.182 180.521L293.287 178.331L295.07 178.243L296.853 178.156L298.254 180.21C300.429 183.402 302.821 186.24 303.881 186.886C305.025 187.583 309.674 187.793 310.289 187.176C310.582 186.882 310.438 186.724 309.744 186.577C309.225 186.468 308.396 186.295 307.9 186.191C306.798 185.961 304.903 184.095 301.884 180.265L299.595 177.362L300.975 175.533C303.925 171.624 303.402 167.426 299.742 165.649C298.43 165.012 297.546 164.916 292.966 164.916C288.912 164.916 287.733 165.019 287.846 165.364ZM330.199 165.453C330.199 165.788 330.537 165.99 331.1 165.99C331.738 165.99 332.101 166.256 332.348 166.907C332.73 167.914 332.822 181.513 332.468 184.474C332.281 186.033 332.113 186.358 331.401 186.537C329.359 187.051 330.986 187.374 336.839 187.618C344.147 187.921 344.129 187.928 344.389 184.788C344.583 182.446 344.11 182.193 343.157 184.129C342.668 185.124 342.193 185.535 341.264 185.77C339.488 186.219 336.382 185.768 336.073 185.015C335.685 184.072 335.451 169.198 335.799 167.612C336.034 166.542 336.319 166.145 336.962 165.993C337.431 165.882 337.88 165.594 337.96 165.354C338.068 165.027 337.108 164.916 334.152 164.916C330.876 164.916 330.199 165.008 330.199 165.453ZM207.91 167.274C210.116 167.983 212.245 169.881 213.368 172.142C214.099 173.614 214.29 174.523 214.289 176.523C214.285 181.206 213.128 183.474 209.923 185.082C208.175 185.958 207.461 186.107 205.055 186.097C203.504 186.09 201.921 185.915 201.536 185.709C200.541 185.175 200.39 183.724 200.386 174.69C200.382 167.44 200.436 166.742 201.006 166.578C202.015 166.287 206.131 166.702 207.91 167.274ZM297.172 166.89C299.255 167.881 300.313 170.936 299.553 173.765C299.044 175.662 297.732 176.721 295.89 176.721C293.19 176.721 293.109 176.566 293.109 171.402C293.109 168.884 293.216 166.717 293.346 166.586C293.773 166.158 296.006 166.335 297.172 166.89ZM144.37 176.944C144.382 177.206 143.577 177.337 142.071 177.319C140.612 177.301 139.753 177.142 139.753 176.89C139.753 176.538 141.168 172.118 141.754 170.64C141.944 170.159 144.319 175.881 144.37 176.944ZM45.1237 203.072C44.9928 203.203 44.8858 208.415 44.8858 214.653C44.8858 220.891 44.7852 226.499 44.6625 227.115C44.4885 227.988 44.1946 228.298 43.3251 228.524C41.1963 229.077 42.41 229.484 46.4892 229.584C49.98 229.669 50.592 229.603 50.592 229.137C50.592 228.803 50.2704 228.589 49.7686 228.589C49.3156 228.589 48.6508 228.373 48.2914 228.109C47.7008 227.676 47.6109 226.762 47.3651 218.719C47.2154 213.819 47.1312 209.769 47.1779 209.72C47.2246 209.671 49.5963 212.166 52.448 215.264C61.5616 225.167 66.5022 230.148 66.9402 229.876C67.2226 229.701 67.3688 227.836 67.4006 224.007C67.4263 220.92 67.5468 215.342 67.6681 211.613L67.8892 204.831L68.7808 204.621C69.2712 204.506 69.6724 204.18 69.6724 203.898C69.6724 203.484 68.9163 203.383 65.7493 203.377C62.4968 203.371 61.8263 203.462 61.8263 203.907C61.8263 204.248 62.2385 204.483 62.959 204.553C63.5817 204.614 64.2482 204.855 64.4401 205.09C64.6323 205.325 64.8959 209.611 65.0268 214.638L65.2643 223.76L63.7236 222.147C62.8762 221.26 58.4977 216.552 53.9937 211.684C49.4893 206.816 45.7046 202.834 45.5827 202.834C45.461 202.834 45.2542 202.941 45.1237 203.072ZM232 203.331C229.247 204.365 227.839 206.405 227.851 209.344C227.862 212.138 228.796 213.817 231.8 216.452C235.384 219.595 236.763 221.04 237.147 222.053C237.992 224.284 237.107 226.741 235.116 227.689C231.97 229.186 228.2 227.249 228.2 224.135C228.2 223.585 227.998 223.223 227.693 223.223C227.056 223.223 226.496 227.707 227.027 228.562C227.564 229.426 229.554 229.977 232.223 230C237.315 230.042 240.413 227.296 240.475 222.686C240.512 219.96 239.376 217.893 236.507 215.462C235.392 214.517 233.629 212.923 232.588 211.92C230.862 210.256 230.696 209.958 230.696 208.512C230.696 206.558 231.383 205.52 233.039 204.972C235.505 204.155 238.25 205.389 238.671 207.504C239.058 209.445 239.781 208.546 239.895 205.979C240.018 203.22 240.043 203.239 236.062 202.987C234.221 202.87 232.938 202.979 232 203.331ZM285.803 203.287C285.399 204.512 284.91 206.661 284.908 207.216C284.905 208.184 285.733 207.952 286.384 206.802C286.949 205.807 287.103 205.758 290.423 205.508C292.668 205.339 294.005 205.378 294.245 205.618C294.488 205.862 294.569 209.632 294.485 216.697C294.35 227.968 294.257 228.589 292.708 228.589C292.34 228.589 292.039 228.835 292.039 229.136C292.039 229.603 292.69 229.669 296.498 229.583C300.84 229.486 302.294 229.035 299.869 228.538C299.253 228.411 298.581 228.14 298.377 227.934C298.136 227.693 297.99 223.665 297.964 216.539L297.923 205.516L301.101 205.624C304.649 205.744 305.489 206.038 305.655 207.215C305.718 207.658 306.01 208.02 306.304 208.02C306.714 208.02 306.864 207.477 306.943 205.695L307.047 203.37H297.67C292.513 203.37 287.766 203.252 287.121 203.108C286.311 202.927 285.904 202.982 285.803 203.287ZM0.093685 203.603C-0.227649 204.125 0.311235 204.622 1.19713 204.622C1.66433 204.622 2.17647 204.824 2.33518 205.069C2.49388 205.315 2.70716 209.46 2.80916 214.28C2.97785 222.246 3.0638 223.191 3.75247 224.654C4.69722 226.661 5.96223 227.998 7.89879 229.036C9.16808 229.717 9.95091 229.841 12.9663 229.841C16.9204 229.841 17.8095 229.531 20.2835 227.289C22.8189 224.991 23.2091 223.282 23.4534 213.401L23.6656 204.832L24.5572 204.621C25.0476 204.506 25.4488 204.186 25.4488 203.911C25.4488 203.516 24.6631 203.407 21.704 203.392C18.6066 203.375 17.9593 203.464 17.9593 203.907C17.9593 204.226 18.357 204.489 18.9401 204.556C19.4797 204.619 20.0967 204.998 20.311 205.4C20.8724 206.453 20.5517 221.914 19.934 223.581C17.8373 229.235 10.0151 229.752 7.39236 224.409C6.59063 222.776 6.5407 222.263 6.428 214.512C6.29997 205.713 6.40196 204.625 7.35598 204.617C8.18125 204.609 9.08748 204.01 8.764 203.686C8.39488 203.316 0.318726 203.239 0.093685 203.603ZM88.9143 203.506C88.4507 203.971 88.8672 204.588 89.7128 204.688C90.4732 204.777 90.7396 205.061 90.9932 206.048C91.1693 206.734 91.2589 211.82 91.1922 217.351C91.0645 227.93 90.9607 228.589 89.4225 228.589C89.0541 228.589 88.7527 228.835 88.7527 229.136C88.7527 229.604 89.4097 229.669 93.2707 229.583C97.9901 229.479 99.2794 229.005 96.5161 228.391L94.994 228.052V216.443V204.833L95.8592 204.629C96.6845 204.433 97.3414 203.583 96.7176 203.518C95.4729 203.387 89.0427 203.378 88.9143 203.506ZM112.726 203.463C111.89 203.743 112.302 204.24 113.676 204.611C114.438 204.817 115.246 205.208 115.472 205.482C115.698 205.755 118.016 211.347 120.624 217.909C123.993 226.39 125.539 229.875 125.968 229.958C126.692 230.098 127.495 228.403 132.889 215.353C134.962 210.337 136.886 205.879 137.163 205.448C137.44 205.017 138.096 204.615 138.621 204.554C139.175 204.489 139.574 204.222 139.574 203.914C139.574 203.484 138.919 203.38 136.087 203.362C134.17 203.35 132.424 203.45 132.208 203.583C131.583 203.97 132.218 204.622 133.22 204.622C134.037 204.622 134.113 204.732 133.932 205.643C133.67 206.958 127.427 223.209 127.033 223.603C126.785 223.85 119.753 205.722 119.774 204.89C119.777 204.743 120.172 204.622 120.651 204.622C121.513 204.622 122.183 204.051 121.786 203.653C121.55 203.416 113.38 203.245 112.726 203.463ZM154.611 203.623C154.009 203.997 154.712 204.545 155.972 204.684C156.922 204.789 157.065 204.971 157.332 206.411C157.495 207.296 157.565 212.4 157.485 217.753C157.334 227.911 157.226 228.589 155.758 228.589C155.39 228.589 155.088 228.83 155.088 229.125C155.088 229.584 156.117 229.662 162.207 229.662H169.326L169.717 228.205C170.477 225.377 169.662 223.26 168.819 225.871C168.547 226.714 168.124 227.09 167.036 227.456C165.458 227.986 162.013 227.807 161.368 227.161C161.116 226.909 160.973 224.933 160.973 221.716V216.667L163.643 216.752C166.565 216.846 167.214 217.152 167.214 218.438C167.214 218.918 167.426 219.288 167.7 219.288C168.2 219.288 168.641 217.15 168.641 214.726C168.641 213.487 168.638 213.484 167.761 214.06C167.126 214.478 166.04 214.638 163.838 214.638H160.794V209.988V205.338H163.268C166.437 205.338 167.571 205.754 167.571 206.917C167.571 207.87 168.173 208.471 168.626 207.971C168.78 207.801 169 206.697 169.115 205.516L169.324 203.37H162.172C158.238 203.37 154.836 203.484 154.611 203.623ZM188.518 203.607C187.89 203.997 188.572 204.543 189.861 204.684L190.931 204.801L191.031 215.711C191.085 221.712 191.043 226.981 190.936 227.421C190.823 227.885 190.37 228.314 189.855 228.443C189.368 228.566 188.969 228.895 188.969 229.175C188.969 229.592 189.747 229.666 193.309 229.584C196.103 229.519 197.695 229.341 197.781 229.084C197.856 228.857 197.308 228.588 196.515 228.46C194.777 228.182 194.687 227.893 194.68 222.597L194.675 218.573H195.701C198.365 218.573 198.865 218.899 201.276 222.208C204.343 226.414 206.367 228.587 207.771 229.178C209.103 229.74 214.143 229.833 214.47 229.302C214.593 229.103 214.482 228.88 214.224 228.806C213.967 228.731 213.034 228.478 212.151 228.242C210.316 227.753 207.766 225.308 204.054 220.48L201.841 217.602L202.897 216.587C203.478 216.029 204.353 214.767 204.842 213.783C206.906 209.629 205.309 205.2 201.273 203.886C199.709 203.377 189.258 203.149 188.518 203.607ZM259.721 203.616C259.427 204.093 259.934 204.622 260.684 204.622C261.976 204.622 262.133 206.083 262.015 216.994C261.896 227.992 261.804 228.589 260.224 228.589C259.823 228.589 259.588 228.779 259.673 229.036C259.781 229.361 261.007 229.483 264.161 229.483C268.617 229.483 269.668 229.111 267.184 228.412L265.825 228.029V216.431V204.833L266.717 204.622C267.207 204.506 267.609 204.19 267.609 203.919C267.609 203.535 266.762 203.416 263.754 203.377C261.635 203.349 259.82 203.457 259.721 203.616ZM320.524 203.578C319.972 203.92 320.467 204.622 321.259 204.622C322.307 204.622 324.473 207.326 327.705 212.671L330.734 217.679L330.851 222.617C330.973 227.786 330.783 228.589 329.443 228.589C329.074 228.589 328.773 228.83 328.773 229.125C328.773 229.573 329.506 229.662 333.231 229.662C336.956 229.662 337.689 229.573 337.689 229.125C337.689 228.803 337.36 228.589 336.865 228.589C335.085 228.589 334.706 227.866 334.544 224.17C334.321 219.052 334.566 218.102 337.384 213.153C340.772 207.2 342.397 205.074 343.846 204.698C344.481 204.533 345 204.166 345 203.884C345 203.47 344.354 203.381 341.674 203.427C338.234 203.486 337.427 203.71 338.494 204.309C338.836 204.501 339.115 204.951 339.115 205.308C339.115 205.666 337.809 208.245 336.212 211.039L333.309 216.12L330.827 211.891C329.462 209.566 328.022 207.03 327.627 206.257C326.94 204.911 326.937 204.83 327.547 204.382C327.899 204.125 328.074 203.802 327.938 203.666C327.609 203.336 321.039 203.258 320.524 203.578ZM199.202 205.676C201.198 206.585 202.165 208.459 202.165 211.416C202.165 215.763 200.491 217.462 196.678 216.984L194.675 216.733V211.065C194.675 206.865 194.791 205.35 195.121 205.217C196.07 204.833 197.77 205.024 199.202 205.676Z" fill="white"/>
</svg>
