<svg width="22" height="24" viewBox="0 0 22 24" fill="none" xmlns="http://www.w3.org/2000/svg">
<path d="M15.8889 14.4C17.4637 14.4001 18.9776 14.9971 20.1151 16.0664C21.2525 17.1357 21.9255 18.5949 21.9939 20.1396L22 20.4V21.6C22.0002 22.2055 21.7673 22.7887 21.3479 23.2327C20.9286 23.6766 20.3539 23.9486 19.7389 23.994L19.5556 24H2.44444C1.82774 24.0002 1.23375 23.7715 0.781552 23.3598C0.329353 22.9481 0.0523641 22.3838 0.00611125 21.78L0 21.6V20.4C9.09853e-05 18.8538 0.608107 17.3674 1.69725 16.2507C2.7864 15.1339 4.27258 14.4731 5.84589 14.406L6.11111 14.4H15.8889ZM11 0C12.6208 0 14.1752 0.632141 15.3212 1.75736C16.4673 2.88258 17.1111 4.4087 17.1111 6C17.1111 7.5913 16.4673 9.11742 15.3212 10.2426C14.1752 11.3679 12.6208 12 11 12C9.37923 12 7.82485 11.3679 6.67879 10.2426C5.53274 9.11742 4.88889 7.5913 4.88889 6C4.88889 4.4087 5.53274 2.88258 6.67879 1.75736C7.82485 0.632141 9.37923 0 11 0Z" fill="white"/>
</svg>
